<?xml version="1.0" encoding="utf-8"?>
<!-- Generator: Adobe Illustrator 22.1.0, SVG Export Plug-In . SVG Version: 6.00 Build 0)  -->
<svg version="1.1" id="_x38_" xmlns="http://www.w3.org/2000/svg" xmlns:xlink="http://www.w3.org/1999/xlink" x="0px" y="0px"
	 viewBox="0 0 128 128" style="enable-background:new 0 0 128 128;" xml:space="preserve">
<style type="text/css">
	.st0{fill:#FFFFFF;}
	.st1{fill:#5B405A;}
</style>
<g>
	<g>
		<rect x="0.001" class="st0" width="127.999" height="128"/>
		<path class="st1" d="M6.26,40.259c0.026-0.007,0.052-0.01,0.078-0.01c0.2,0,0.407,0.194,0.566,0.539
			c0.377,0.817,0.021,3.284-0.823,5.119c0.3-1.465,0.062-2.829-0.112-3.825c-0.059-0.335-0.109-0.625-0.127-0.853
			C5.801,40.681,6.026,40.32,6.26,40.259z M5.362,47.726c-0.057,0.043-0.112,0.087-0.168,0.13c0.03-0.037,0.061-0.074,0.091-0.112
			C5.312,47.743,5.338,47.737,5.362,47.726z M25.387,37.493c-0.068,0.493-1.185,0.62-2.73,0.795
			c-3.065,0.347-8.368,0.948-13.712,5.303c0.11-0.117,0.219-0.234,0.327-0.349c3.222-3.418,7.961-5.397,8.491-5.612
			c2.039-0.825,4.12-1.277,5.595-1.277c0.786,0,1.4,0.128,1.744,0.396C25.338,36.933,25.431,37.176,25.387,37.493z M25.352,36.428
			c-1.268-0.987-4.936-0.311-7.742,0.825c-0.538,0.219-5.352,2.23-8.636,5.711c-0.727,0.773-1.484,1.592-2.246,2.46
			c0.687-1.803,0.954-3.922,0.546-4.806c-0.27-0.584-0.687-0.865-1.116-0.751c-0.478,0.124-0.776,0.697-0.722,1.395
			c0.019,0.249,0.07,0.546,0.132,0.892c0.219,1.262,0.546,3.135-0.327,5.003c-0.714,0.862-1.424,1.76-2.116,2.698
			c-0.162,0.197-0.316,0.397-0.46,0.606c-0.016,0.021-0.024,0.043-0.032,0.068c-0.1,0.143-0.203,0.284-0.303,0.43
			c0.843-2.433,0.808-4.493,0.154-5.268c-0.276-0.324-0.657-0.427-1.076-0.286c-0.662,0.219-0.541,1.254-0.373,2.687
			c0.168,1.416,0.376,3.179-0.027,4.857C0.662,53.5,0.324,54.065,0,54.641v1.565c1.765-1.533,4.482-2.976,6.742-3.498
			c0.941-0.219,1.554-0.662,1.684-1.216c0.076-0.33-0.038-0.646-0.311-0.87c-0.416-0.338-1.295-0.495-2.522,0.073
			c-1.727,0.798-3.514,2.244-5.333,4.311c0.846-1.511,1.779-2.952,2.76-4.317c2.7-2.095,7.158-3.811,11.123-4.276
			c1.23-0.146,2.109-0.568,2.346-1.13c0.103-0.235,0.073-0.476-0.076-0.676c-0.316-0.416-1.108-0.576-2.176-0.438
			c-2.79,0.36-6.171,1.546-8.807,3.509c0.23-0.246,0.443-0.543,0.643-0.878c0.041-0.049,0.081-0.097,0.122-0.143
			c0.065,0.011,0.135-0.011,0.184-0.065c6.133-6.744,12.761-7.496,16.324-7.898c1.857-0.211,2.976-0.338,3.087-1.143
			C25.855,37.087,25.704,36.701,25.352,36.428z M5.763,51.065c0.533-0.246,0.981-0.34,1.335-0.34c0.351,0,0.608,0.092,0.757,0.214
			c0.154,0.124,0.214,0.289,0.173,0.462c-0.07,0.303-0.468,0.7-1.379,0.911c-1.741,0.403-4.103,1.479-5.971,2.835
			C2.419,53.189,4.122,51.822,5.763,51.065z M1.441,48.04c-0.13-1.097-0.251-2.135,0.097-2.252c0.078-0.027,0.154-0.041,0.224-0.041
			c0.16,0,0.295,0.068,0.411,0.203c0.56,0.665,0.603,2.968-0.557,5.725C1.717,50.381,1.568,49.113,1.441,48.04z M14.291,44.572
			c0.241-0.03,0.457-0.043,0.649-0.043c0.652,0,1.022,0.157,1.146,0.324c0.062,0.084,0.073,0.168,0.03,0.27
			c-0.146,0.341-0.827,0.743-2.022,0.884c-3.514,0.414-7.412,1.792-10.18,3.557C6.566,46.71,10.88,45.015,14.291,44.572z"/>
		<path class="st1" d="M58.087,116.228c0.9,1.331,4.596,1.825,7.617,1.614c0.579-0.04,5.78-0.461,9.979-2.755
			c0.932-0.509,1.905-1.056,2.899-1.642c-1.211,1.5-2.122,3.432-2.008,4.399c0.075,0.638,0.385,1.034,0.828,1.061
			c0.493,0.03,0.953-0.424,1.119-1.105c0.058-0.241,0.101-0.541,0.151-0.888c0.181-1.267,0.452-3.15,1.861-4.656
			c0.945-0.597,1.9-1.232,2.848-1.908c0.214-0.138,0.423-0.282,0.624-0.434c0.021-0.016,0.037-0.035,0.05-0.056
			c0.141-0.104,0.281-0.207,0.421-0.313c-1.556,2.05-2.16,4.02-1.778,4.96c0.16,0.395,0.492,0.61,0.934,0.607
			c0.699-0.005,0.904-1.026,1.187-2.44c0.28-1.399,0.629-3.139,1.531-4.611c0.923-0.77,1.824-1.585,2.689-2.449
			c-1.165,2.416-1.952,5.649-1.61,7.586c0.161,0.909,0.603,1.571,1.184,1.772c0.346,0.121,0.699,0.051,0.967-0.188
			c0.468-0.418,0.6-1.26,0.364-2.308c-0.027-0.119-0.059-0.252-0.094-0.397c-0.433-1.789-1.333-5.511,1.563-9.034
			c0.025-0.03,0.036-0.066,0.041-0.102c0.4-0.494,0.788-1,1.159-1.521c0.065-0.092,0.044-0.219-0.048-0.284
			c-0.017-0.012-0.036-0.022-0.055-0.028c-0.082-0.027-0.176,0.001-0.229,0.076c-0.406,0.57-0.831,1.123-1.271,1.659
			c-0.403,0.309-0.805,0.783-1.189,1.369c-0.193,0.21-0.388,0.416-0.585,0.621c-2.127,1.175-5.75,1.917-8.41,1.682
			c-0.962-0.085-1.683,0.146-1.978,0.634c-0.175,0.289-0.164,0.626,0.028,0.924c0.289,0.449,1.077,0.872,2.42,0.713
			c1.889-0.223,4.036-1.046,6.405-2.45c-1.272,1.177-2.606,2.257-3.96,3.251c-3.218,1.156-7.986,1.407-11.901,0.621
			c-1.215-0.244-2.18-0.115-2.582,0.345c-0.169,0.194-0.218,0.431-0.136,0.667c0.171,0.495,0.875,0.893,1.931,1.091
			c2.765,0.521,6.348,0.44,9.462-0.607c-0.294,0.161-0.592,0.378-0.884,0.634c-0.054,0.033-0.107,0.067-0.161,0.099
			c-0.059-0.03-0.132-0.031-0.194,0.004c-7.922,4.512-14.457,3.173-17.968,2.453c-1.83-0.375-2.935-0.602-3.291,0.132
			C57.814,115.445,57.838,115.861,58.087,116.228z M77.427,118.5c-0.026-0.002-0.052-0.007-0.077-0.015
			c-0.19-0.062-0.326-0.311-0.371-0.687c-0.105-0.893,0.998-3.129,2.368-4.613c-0.739,1.3-0.935,2.67-1.078,3.671
			c-0.048,0.337-0.09,0.628-0.144,0.85C77.995,118.241,77.668,118.514,77.427,118.5z M83.63,114.707c-0.085,0-0.16-0.01-0.227-0.032
			c-0.151-0.049-0.258-0.155-0.326-0.321c-0.327-0.805,0.346-3.008,2.303-5.271c-0.497,1.201-0.748,2.452-0.96,3.512
			C84.202,113.679,83.997,114.704,83.63,114.707z M81.247,108.381c-0.583,0.069-1.04,0.018-1.376-0.092
			c-0.332-0.108-0.548-0.274-0.653-0.437c-0.106-0.165-0.114-0.34-0.021-0.493c0.16-0.266,0.663-0.521,1.593-0.438
			c1.781,0.157,4.36-0.136,6.555-0.846C85.085,107.396,83.041,108.169,81.247,108.381z M89.453,112.174
			c0.035,0.143,0.066,0.274,0.093,0.391c0.2,0.887,0.111,1.603-0.238,1.915c-0.154,0.138-0.349,0.177-0.551,0.111
			c-0.004-0.001-0.008-0.003-0.012-0.004c-0.339-0.117-0.757-0.562-0.915-1.457c-0.343-1.942,0.475-5.043,1.583-7.33
			C88.546,108.424,89.128,110.827,89.453,112.174z M71.127,111.911c-0.239-0.045-0.448-0.099-0.631-0.158
			c-0.621-0.202-0.922-0.468-0.99-0.666c-0.034-0.097-0.015-0.182,0.058-0.265c0.242-0.277,1.015-0.451,2.195-0.214
			c3.469,0.697,7.604,0.591,10.782-0.228C79.134,112.272,74.508,112.548,71.127,111.911z M80.593,111.679
			c0.067-0.023,0.134-0.047,0.2-0.071c-0.04,0.026-0.081,0.052-0.121,0.078C80.647,111.678,80.62,111.675,80.593,111.679z
			 M58.384,115.205c0.217-0.448,1.318-0.222,2.842,0.09c3.021,0.619,8.25,1.691,14.681-0.795c-0.141,0.078-0.281,0.154-0.419,0.23
			c-4.123,2.252-9.242,2.666-9.812,2.705c-2.194,0.153-4.313-0.062-5.715-0.519c-0.747-0.243-1.291-0.555-1.535-0.917
			C58.257,115.753,58.244,115.493,58.384,115.205z"/>
		<path class="st1" d="M68.114,98.693c-0.131-0.804-1.254-0.904-3.115-1.069c-3.57-0.317-10.215-0.906-16.511-7.499
			c-0.049-0.052-0.12-0.072-0.185-0.06c-0.042-0.047-0.084-0.094-0.126-0.141c-0.207-0.329-0.429-0.622-0.665-0.861
			c2.684,1.896,6.093,3,8.892,3.293c1.069,0.112,1.857-0.067,2.163-0.492c0.146-0.203,0.168-0.443,0.061-0.678
			c-0.253-0.556-1.141-0.957-2.375-1.071c-3.975-0.369-8.472-1.975-11.224-4.005c-1.012-1.34-1.981-2.757-2.863-4.249
			c1.867,2.023,3.689,3.427,5.434,4.182c1.242,0.537,2.117,0.357,2.523,0.01c0.27-0.23,0.376-0.55,0.291-0.877
			c-0.142-0.552-0.767-0.98-1.713-1.174c-2.616-0.537-5.875-2.286-7.576-4.021c-0.13-0.253-0.259-0.506-0.383-0.763
			c-0.199-0.672-0.449-1.241-0.746-1.652c-0.268-0.64-0.517-1.291-0.743-1.954c-0.029-0.086-0.111-0.14-0.198-0.138
			c-0.02,0.001-0.041,0.004-0.061,0.011c-0.107,0.036-0.164,0.152-0.127,0.259c0.206,0.606,0.433,1.202,0.675,1.79
			c-0.006,0.036-0.005,0.074,0.01,0.109c1.765,4.205-0.164,7.514-1.091,9.103c-0.075,0.129-0.144,0.247-0.204,0.354
			c-0.527,0.937-0.641,1.781-0.313,2.316c0.188,0.306,0.507,0.474,0.873,0.458c0.614-0.026,1.227-0.534,1.642-1.358
			c0.883-1.758,1.056-5.08,0.631-7.729c0.581,1.076,1.211,2.115,1.874,3.117c0.443,1.669,0.278,3.435,0.145,4.856
			c-0.134,1.436-0.231,2.473,0.438,2.678c0.422,0.129,0.802,0.018,1.068-0.314c0.636-0.791,0.621-2.851-0.282-5.261
			c0.104,0.141,0.209,0.281,0.314,0.42c0.006,0.024,0.017,0.047,0.032,0.068c0.15,0.203,0.308,0.401,0.474,0.595
			c0.715,0.92,1.448,1.801,2.182,2.644c0.918,1.847,0.638,3.728,0.449,4.994c-0.052,0.347-0.097,0.647-0.11,0.894
			c-0.037,0.699,0.274,1.266,0.755,1.379c0.432,0.101,0.843-0.19,1.097-0.779c0.386-0.894,0.067-3.006-0.663-4.79
			c0.785,0.847,1.56,1.649,2.307,2.404c3.366,3.4,8.228,5.294,8.771,5.498c2.834,1.068,6.517,1.653,7.76,0.636
			C68.047,99.543,68.189,99.151,68.114,98.693z M48.082,95.498c0.012-0.228,0.055-0.519,0.106-0.855c0.15-1,0.354-2.368,0.019-3.826
			c0.888,1.814,1.304,4.272,0.947,5.098c-0.15,0.348-0.352,0.547-0.552,0.552c-0.026,0.001-0.052-0.002-0.078-0.008
			C48.288,96.403,48.053,96.048,48.082,95.498z M43.516,88.797c0.101-1.076,0.219-2.346,0.087-3.639
			c1.226,2.729,1.24,5.033,0.696,5.71c-0.112,0.139-0.246,0.211-0.404,0.214c-0.07,0.002-0.146-0.01-0.227-0.035
			C43.316,90.939,43.413,89.898,43.516,88.797z M42.582,81.713c1.9,1.309,4.286,2.329,6.038,2.689
			c0.914,0.188,1.323,0.576,1.401,0.877c0.045,0.173-0.013,0.339-0.162,0.466c-0.148,0.127-0.402,0.223-0.751,0.232
			c-0.354,0.009-0.806-0.073-1.345-0.306C46.104,84.952,44.368,83.625,42.582,81.713z M40.679,80.856
			c0.406,2.509,0.301,5.714-0.584,7.477c-0.408,0.813-0.937,1.119-1.295,1.134c-0.004,0-0.008,0-0.012,0
			c-0.212,0.005-0.388-0.088-0.496-0.264c-0.245-0.399-0.125-1.11,0.321-1.903c0.059-0.105,0.127-0.221,0.201-0.348
			C39.511,85.755,40.757,83.619,40.679,80.856z M45.951,87.214c2.81,1.695,6.741,2.981,10.265,3.308
			c1.199,0.111,1.889,0.499,2.041,0.834c0.046,0.101,0.039,0.187-0.021,0.271c-0.122,0.17-0.487,0.338-1.14,0.354
			c-0.191,0.005-0.407-0.004-0.649-0.029C53.025,91.592,48.672,90.002,45.951,87.214z M47.366,88.999
			c-0.031-0.036-0.063-0.073-0.094-0.109c0.057,0.042,0.114,0.085,0.172,0.126C47.419,89.005,47.393,89,47.366,88.999z
			 M67.445,99.508c-0.338,0.276-0.948,0.419-1.734,0.438c-1.475,0.036-3.566-0.365-5.625-1.14c-0.535-0.201-5.32-2.065-8.625-5.403
			c-0.111-0.113-0.223-0.226-0.336-0.341c5.449,4.224,10.765,4.695,13.837,4.968c1.55,0.137,2.669,0.237,2.749,0.728
			C67.763,99.074,67.676,99.319,67.445,99.508z"/>
		<path class="st1" d="M108.198,121.918c0.036,0.077,0.058,0.15,0.066,0.22c0.019,0.158-0.033,0.3-0.155,0.43
			c-0.594,0.634-2.876,0.945-5.751,0.116c1.299-0.051,2.54-0.347,3.591-0.598C107.025,121.828,108.042,121.586,108.198,121.918z
			 M103.46,117.69c0.116-0.091,0.221-0.175,0.316-0.248c0.722-0.553,1.409-0.772,1.838-0.586c0.189,0.082,0.307,0.243,0.331,0.453
			c0,0.004,0.001,0.008,0.001,0.012c0.035,0.357-0.193,0.923-0.94,1.442c-1.62,1.125-4.778,1.68-7.32,1.632
			C100.434,120.084,102.373,118.549,103.46,117.69z M114.62,125.815c-0.178-0.46-0.784-0.687-1.47-0.554
			c-0.243,0.049-0.535,0.135-0.87,0.235c-1.227,0.368-3.049,0.908-5.009,0.259c-0.938-0.608-1.914-1.208-2.925-1.787
			c-0.214-0.138-0.432-0.268-0.654-0.387c-0.024-0.011-0.049-0.019-0.073-0.022c-0.154-0.084-0.305-0.168-0.459-0.251
			c2.514,0.554,4.555,0.278,5.249-0.462c0.289-0.311,0.346-0.703,0.16-1.103c-0.297-0.632-1.311-0.389-2.714-0.054
			c-1.387,0.33-3.114,0.743-4.828,0.538c-1.084-0.514-2.203-0.992-3.349-1.416c2.682,0.049,5.947-0.592,7.563-1.714
			c0.757-0.524,1.173-1.206,1.114-1.816c-0.035-0.365-0.246-0.657-0.576-0.8c-0.576-0.249-1.397-0.016-2.249,0.638
			c-0.097,0.073-0.205,0.159-0.322,0.251c-1.444,1.141-4.447,3.517-8.858,2.362c-0.038-0.008-0.076-0.005-0.111,0.005
			c-0.616-0.157-1.238-0.297-1.868-0.416c-0.111-0.022-0.216,0.051-0.238,0.162c-0.003,0.022-0.006,0.043-0.003,0.062
			c0.011,0.087,0.076,0.159,0.165,0.176c0.689,0.13,1.368,0.287,2.041,0.462c0.449,0.235,1.046,0.403,1.741,0.506
			c0.27,0.087,0.541,0.178,0.808,0.27c1.957,1.441,4.149,4.419,5.049,6.933c0.013,0.035,0.027,0.07,0.038,0.105h0.441
			c-0.033-0.076-0.065-0.157-0.095-0.241c-0.603-1.684-1.952-3.903-3.514-5.601c2.146,1.5,3.703,3.033,4.647,4.574
			c0.303,0.492,0.446,0.919,0.492,1.268h0.408c-0.043-0.419-0.208-0.919-0.551-1.481c-0.995-1.622-2.641-3.227-4.906-4.792
			c1.6,0.662,3.141,1.422,4.609,2.235c1.046,1.065,2.06,2.471,2.946,4.038h0.468c-0.67-1.208-1.414-2.327-2.192-3.282
			c1.203,0.881,2.265,2.022,3.165,3.282h0.495c-0.489-0.705-1.024-1.379-1.608-1.995c0.27,0.2,0.592,0.378,0.946,0.538
			c0.054,0.035,0.105,0.068,0.16,0.103c-0.003,0.068,0.027,0.135,0.084,0.176c0.541,0.386,1.051,0.781,1.53,1.178h1.041
			c-0.443-0.322-0.9-0.643-1.368-0.968c1.868,0.47,4.003,0.489,4.836-0.019C114.549,126.677,114.782,126.229,114.62,125.815z
			 M106.57,125.791c0.041,0.027,0.081,0.051,0.122,0.078c0.005,0.027,0.014,0.051,0.027,0.073
			C106.67,125.891,106.621,125.842,106.57,125.791z M113.79,126.664c-0.768,0.47-3.26,0.405-5.182-0.219
			c1.492,0.127,2.817-0.268,3.787-0.557c0.324-0.097,0.608-0.181,0.833-0.227c0.541-0.105,0.924,0.078,1.011,0.303
			c0.011,0.024,0.016,0.049,0.019,0.076C114.282,126.24,114.114,126.467,113.79,126.664z"/>
		<path class="st1" d="M34.838,62.842c0.311,0.02,0.598,0.028,0.856,0.034c0.018,0,0.035-0.002,0.052-0.006
			c2.769,0.927,5.456,0.894,7.48-0.114c0.101-0.05,0.142-0.173,0.092-0.273c-0.05-0.101-0.173-0.142-0.273-0.092
			c-1.736,0.865-3.857,0.924-5.958,0.434c-0.023-0.023-0.052-0.042-0.086-0.052c-0.201-0.06-0.442-0.178-0.705-0.344
			c-1.281-1.259-1.954-3.625-1.837-4.73c0.053-0.496-0.157-0.967-0.533-1.199c-0.268-0.165-0.571-0.173-0.81-0.019
			c-0.063,0.041-0.137,0.103-0.207,0.198c-0.17,0.231-0.315,0.655-0.219,1.427c0.199,1.606,1.561,3.265,2.794,4.241
			c-2.655-0.969-5.105-2.737-6.493-4.76c0.009-0.038,0.007-0.08-0.008-0.12c-0.407-1.049,0.284-3.367,1.127-4.586
			c0.363-0.524,0.467-1.043,0.286-1.424c-0.114-0.24-0.327-0.388-0.585-0.408c-0.332-0.026-0.668,0.164-0.931,0.522
			c-0.013,0.018-0.026,0.037-0.039,0.056c-0.63,0.925-0.891,2.988-0.735,4.386c0-0.001-0.001-0.002-0.002-0.004
			c-0.791-2.594-0.496-5.273,0.86-7.764c0.885-1.626,0.696-2.696,0.146-3.002c-0.35-0.194-0.924-0.113-1.491,0.659
			c-0.084,0.114-0.168,0.244-0.251,0.391c-1.03,1.812-1.492,5.898,0.354,9.86c0.025,0.083,0.052,0.165,0.079,0.247
			c0.017,0.051,0.052,0.091,0.096,0.114c0.138,0.274,0.286,0.546,0.447,0.817c0.26,0.438,0.573,0.868,0.927,1.286
			c-1.098-0.697-2.875-2.087-3.556-4.107c-0.239-0.708-0.652-1.138-1.133-1.179c-0.311-0.027-0.605,0.115-0.797,0.376
			c-0.028,0.039-0.055,0.08-0.078,0.124c-0.244,0.451-0.157,1.015,0.23,1.509c1.537,1.956,5.214,3.989,6.313,4.3
			c1.189,1.105,2.678,2.07,4.309,2.774c-1.03-0.093-2.246-0.353-3.543-1.187c-1.02-0.655-1.808-0.611-2.138-0.276
			c-0.023,0.023-0.044,0.048-0.062,0.073c-0.19,0.259-0.161,0.623,0.087,0.994C29.56,63.004,32.732,63.092,34.838,62.842z
			 M33.095,58.055c-0.077-0.625,0.013-1.085,0.242-1.232c0.15-0.096,0.312-0.016,0.375,0.023c0.185,0.114,0.386,0.395,0.342,0.809
			c-0.094,0.883,0.251,2.441,0.98,3.749C34.104,60.486,33.241,59.241,33.095,58.055z M29.177,51.855
			c0.181-0.265,0.406-0.416,0.602-0.401c0.11,0.008,0.198,0.071,0.249,0.177c0.115,0.241,0.02,0.621-0.253,1.016
			c-0.593,0.857-1.1,2.186-1.261,3.337C28.37,54.69,28.611,52.686,29.177,51.855z M27.721,46.493
			c0.441-0.776,0.933-1.038,1.19-0.895c0.327,0.182,0.449,1.063-0.306,2.451c-0.993,1.825-1.438,3.748-1.326,5.669
			C26.496,50.688,26.93,47.885,27.721,46.493z M27.47,57.754c-1.206-0.763-2.472-1.724-3.214-2.667
			c-0.284-0.362-0.356-0.759-0.192-1.063c0.105-0.194,0.289-0.304,0.482-0.288c0.312,0.027,0.597,0.356,0.781,0.903
			C25.762,55.927,26.612,56.97,27.47,57.754z M29.24,61.79c-0.156-0.235-0.184-0.442-0.073-0.555
			c0.208-0.212,0.849-0.167,1.627,0.333c0.768,0.494,1.517,0.797,2.216,0.985C31.245,62.576,29.597,62.326,29.24,61.79z"/>
		<path class="st1" d="M106.398,75.41c-0.123,0.429-0.04,0.784,0.22,0.973c0.026,0.019,0.053,0.035,0.082,0.051
			c0.416,0.219,1.181,0.021,1.953-0.913c0.982-1.189,2.06-1.807,3.014-2.209c-1.34,1.167-2.464,2.539-3.261,3.953
			c-0.952,0.63-3.836,3.686-4.705,6.017c-0.219,0.588-0.13,1.151,0.24,1.507c0.036,0.035,0.073,0.066,0.112,0.094
			c0.262,0.19,0.586,0.236,0.874,0.116c0.446-0.186,0.709-0.721,0.72-1.468c0.033-2.131,1.304-3.996,2.138-4.994
			c-0.21,0.506-0.378,1.011-0.492,1.507c-0.071,0.307-0.13,0.612-0.177,0.914c-0.034,0.036-0.056,0.085-0.057,0.138
			c-0.001,0.087-0.001,0.173,0,0.259c-0.553,4.335,1.13,8.087,2.662,9.5c0.124,0.114,0.243,0.212,0.358,0.296
			c0.775,0.563,1.347,0.466,1.621,0.174c0.431-0.458,0.285-1.535-1.053-2.815c-2.049-1.961-3.145-4.423-3.181-7.134
			c0-0.001,0-0.003,0.001-0.004c0.277,1.379,1.153,3.265,2.035,3.954c0.018,0.014,0.036,0.028,0.055,0.041
			c0.359,0.261,0.738,0.339,1.046,0.214c0.24-0.097,0.398-0.304,0.433-0.567c0.057-0.417-0.2-0.88-0.705-1.269
			c-1.174-0.905-2.538-2.902-2.469-4.026c0.003-0.043-0.008-0.083-0.028-0.117c0.707-2.349,2.503-4.779,4.738-6.51
			c-0.878,1.305-1.671,3.299-1.372,4.89c0.144,0.764,0.411,1.124,0.643,1.292c0.095,0.069,0.185,0.106,0.257,0.126
			c0.274,0.073,0.561-0.026,0.765-0.265c0.288-0.336,0.344-0.848,0.143-1.305c-0.448-1.017-0.527-3.476,0.311-5.065
			c0.2-0.238,0.394-0.424,0.567-0.542c0.029-0.02,0.051-0.046,0.066-0.076c1.852-1.105,3.89-1.694,5.807-1.399
			c0.111,0.017,0.215-0.059,0.232-0.17c0.017-0.111-0.059-0.215-0.17-0.232c-2.235-0.344-4.805,0.441-7.16,2.167
			c-0.017,0.001-0.034,0.004-0.051,0.01c-0.244,0.085-0.515,0.18-0.805,0.293C109.719,73.219,106.725,74.268,106.398,75.41z
			 M112.425,74.127c-0.296,1.467-0.151,3.056,0.207,3.869c0.168,0.381,0.062,0.71-0.079,0.875c-0.048,0.056-0.179,0.182-0.351,0.136
			c-0.262-0.07-0.489-0.481-0.605-1.1C111.376,76.733,111.819,75.285,112.425,74.127z M107.863,81.272
			c0.504,1.048,1.391,2.16,2.217,2.796c0.381,0.293,0.586,0.626,0.55,0.891c-0.016,0.116-0.081,0.203-0.183,0.244
			c-0.182,0.074-0.443,0-0.696-0.198C108.96,84.386,108.121,82.55,107.863,81.272z M107.376,83.808
			c0.478,1.865,1.487,3.561,2.988,4.997c1.142,1.092,1.294,1.968,1.037,2.241c-0.202,0.215-0.749,0.115-1.406-0.49
			C108.819,89.471,107.552,86.933,107.376,83.808z M105.239,83.525c-0.009,0.577-0.18,0.978-0.469,1.098
			c-0.179,0.074-0.388,0.025-0.547-0.128c-0.249-0.24-0.301-0.64-0.141-1.071c0.419-1.125,1.333-2.425,2.25-3.519
			C105.753,80.913,105.26,82.165,105.239,83.525z M110.149,73.648c-0.608,0.392-1.23,0.908-1.811,1.613
			c-0.589,0.713-1.186,0.95-1.449,0.812c-0.14-0.074-0.177-0.28-0.1-0.551C106.967,74.903,108.46,74.164,110.149,73.648z"/>
		<path class="st1" d="M63.182,23.821c-0.029-0.445-0.227-0.752-0.536-0.842c-0.03-0.009-0.062-0.016-0.094-0.02
			c-0.465-0.066-1.119,0.379-1.53,1.519c-0.522,1.45-1.329,2.396-2.091,3.097c0.867-1.551,1.462-3.222,1.734-4.822
			c0.683-0.915,2.366-4.765,2.396-7.252c0.008-0.627-0.267-1.127-0.735-1.338c-0.045-0.02-0.091-0.037-0.138-0.051
			c-0.311-0.091-0.631-0.024-0.862,0.186c-0.357,0.325-0.424,0.918-0.182,1.625c0.688,2.017,0.123,4.201-0.325,5.423
			c0.027-0.547,0.014-1.079-0.046-1.585c-0.037-0.313-0.085-0.62-0.142-0.92c0.02-0.045,0.024-0.098,0.007-0.149
			c-0.028-0.082-0.057-0.163-0.087-0.244c-0.944-4.267-3.795-7.23-5.715-8.042c-0.155-0.066-0.301-0.118-0.437-0.157
			c-0.92-0.268-1.425,0.016-1.584,0.384c-0.25,0.577,0.25,1.541,1.942,2.294c2.591,1.153,4.454,3.1,5.404,5.641
			c0,0.001,0,0.003,0.001,0.004c-0.727-1.204-2.188-2.684-3.251-3.035c-0.022-0.007-0.044-0.014-0.065-0.02
			c-0.427-0.124-0.809-0.07-1.057,0.152c-0.193,0.173-0.271,0.42-0.216,0.68c0.087,0.412,0.486,0.761,1.093,0.956
			c1.411,0.455,3.369,1.875,3.683,2.955c0.012,0.041,0.036,0.075,0.066,0.1c0.128,2.45-0.742,5.344-2.26,7.727
			c0.385-1.525,0.459-3.67-0.36-5.066c-0.394-0.671-0.766-0.919-1.042-0.999c-0.113-0.033-0.21-0.038-0.285-0.031
			c-0.283,0.024-0.519,0.214-0.631,0.508c-0.157,0.413-0.037,0.914,0.306,1.276c0.765,0.806,1.67,3.094,1.418,4.872
			c-0.108,0.292-0.228,0.533-0.351,0.702c-0.021,0.029-0.032,0.061-0.036,0.094c-1.37,1.666-3.089,2.908-4.994,3.278
			c-0.111,0.021-0.183,0.128-0.161,0.239c0.021,0.11,0.128,0.183,0.239,0.161c2.22-0.431,4.374-2.038,6.008-4.458
			c0.016-0.007,0.031-0.015,0.045-0.027c0.201-0.163,0.424-0.343,0.659-0.548C60.795,27.004,63.26,25.006,63.182,23.821z
			 M57.942,27.064c-0.217-1.481-0.891-2.928-1.502-3.572c-0.287-0.302-0.298-0.647-0.221-0.85c0.026-0.069,0.107-0.232,0.284-0.247
			c0.271-0.022,0.622,0.288,0.941,0.831C58.049,24.257,58.121,25.769,57.942,27.064z M59.823,18.797
			c-0.828-0.816-2.039-1.563-3.031-1.882c-0.457-0.148-0.764-0.392-0.819-0.653c-0.024-0.114,0.007-0.218,0.09-0.292
			c0.146-0.131,0.417-0.149,0.722-0.048C57.739,16.237,59.149,17.682,59.823,18.797z M59.425,16.246
			c-1.08-1.593-2.602-2.849-4.501-3.694c-1.444-0.643-1.883-1.416-1.734-1.759c0.117-0.27,0.666-0.361,1.489-0.014
			C56.153,11.403,58.203,13.364,59.425,16.246z M61.532,15.791c-0.187-0.547-0.161-0.981,0.071-1.192
			c0.143-0.13,0.357-0.155,0.558-0.065c0.315,0.142,0.5,0.501,0.494,0.961c-0.015,1.2-0.436,2.733-0.929,4.072
			C61.93,18.422,61.971,17.078,61.532,15.791z M60.246,26.745c0.44-0.574,0.851-1.27,1.16-2.129c0.313-0.87,0.795-1.295,1.089-1.253
			c0.157,0.022,0.261,0.204,0.28,0.485C62.818,24.489,61.662,25.69,60.246,26.745z"/>
		<path class="st1" d="M85.62,84.607c-0.309-0.321-0.659-0.428-0.952-0.298c-0.029,0.013-0.057,0.028-0.085,0.045
			c-0.398,0.25-0.611,1.011-0.189,2.147c0.537,1.445,0.531,2.688,0.4,3.715c-0.338-1.744-0.962-3.405-1.786-4.803
			c-0.068-1.139-1.266-5.166-2.848-7.087c-0.399-0.484-0.931-0.689-1.424-0.548c-0.048,0.014-0.094,0.031-0.138,0.05
			c-0.296,0.131-0.498,0.389-0.538,0.698c-0.063,0.479,0.268,0.975,0.909,1.359c1.827,1.097,2.804,3.131,3.25,4.353
			c-0.332-0.435-0.685-0.833-1.057-1.181c-0.23-0.215-0.464-0.419-0.702-0.612c-0.014-0.048-0.045-0.09-0.091-0.118
			c-0.074-0.045-0.149-0.088-0.224-0.13c-3.474-2.652-7.564-3.076-9.555-2.459c-0.161,0.05-0.306,0.104-0.435,0.162
			c-0.876,0.389-1.078,0.932-0.963,1.315c0.181,0.602,1.185,1.016,2.964,0.5c2.724-0.79,5.403-0.505,7.768,0.824
			c0.001,0.001,0.002,0.002,0.003,0.003c-1.332-0.451-3.403-0.639-4.442-0.221c-0.021,0.009-0.042,0.018-0.063,0.027
			c-0.406,0.18-0.663,0.468-0.709,0.798c-0.036,0.256,0.064,0.496,0.273,0.659c0.333,0.258,0.862,0.268,1.452,0.026
			c1.372-0.563,3.783-0.741,4.721-0.118c0.036,0.023,0.076,0.034,0.115,0.034c1.678,1.789,2.88,4.562,3.258,7.362
			c-0.689-1.414-2.017-3.1-3.544-3.638c-0.734-0.259-1.179-0.208-1.441-0.091c-0.108,0.048-0.184,0.107-0.238,0.16
			c-0.201,0.201-0.259,0.498-0.155,0.795c0.146,0.417,0.561,0.723,1.057,0.778c1.105,0.122,3.271,1.287,4.227,2.808
			c0.106,0.293,0.17,0.554,0.185,0.763c0.002,0.035,0.015,0.067,0.033,0.095c0.028,2.157-0.484,4.215-1.701,5.726
			c-0.071,0.088-0.057,0.216,0.031,0.286c0.087,0.071,0.216,0.057,0.287-0.031c1.418-1.762,2.027-4.379,1.714-7.282
			c0.007-0.016,0.014-0.032,0.017-0.049c0.049-0.254,0.103-0.536,0.15-0.844C85.85,88.579,86.444,85.462,85.62,84.607z
			 M83.709,90.465c-1.121-0.992-2.569-1.662-3.452-1.76c-0.414-0.046-0.645-0.302-0.717-0.507c-0.024-0.07-0.068-0.246,0.058-0.372
			c0.192-0.192,0.661-0.182,1.255,0.028C81.98,88.252,83.01,89.36,83.709,90.465z M79.813,82.936
			c-1.159-0.089-2.566,0.121-3.53,0.517c-0.445,0.182-0.836,0.193-1.047,0.03c-0.092-0.072-0.135-0.172-0.12-0.281
			c0.027-0.195,0.222-0.383,0.52-0.503C76.569,82.324,78.578,82.518,79.813,82.936z M77.863,81.243
			c-1.853-0.521-3.826-0.498-5.822,0.081c-1.518,0.44-2.352,0.133-2.46-0.226c-0.085-0.282,0.276-0.706,1.129-0.971
			C72.239,79.653,75.07,79.829,77.863,81.243z M79.179,79.536c-0.495-0.297-0.756-0.646-0.715-0.957
			c0.025-0.192,0.173-0.349,0.384-0.409c0.332-0.095,0.705,0.06,0.997,0.415c0.763,0.927,1.43,2.369,1.917,3.711
			C81.181,81.29,80.345,80.236,79.179,79.536z M85.264,88.735c-0.034-0.723-0.17-1.519-0.487-2.375
			c-0.322-0.867-0.228-1.502,0.024-1.661c0.134-0.084,0.331-0.013,0.527,0.19C85.773,85.353,85.665,87.016,85.264,88.735z"/>
		<path class="st1" d="M5.099,10.33c0.899,1.197,2.183,2.145,3.028,2.418c0.397,0.128,0.571,0.425,0.601,0.641
			c0.01,0.073,0.017,0.255-0.131,0.352c-0.227,0.149-0.684,0.045-1.224-0.279C6.348,12.847,5.561,11.553,5.099,10.33z M7.402,18.489
			c1.118,0.32,2.538,0.397,3.562,0.203c0.472-0.089,0.858-0.021,1.032,0.182c0.076,0.089,0.098,0.195,0.061,0.299
			c-0.066,0.185-0.295,0.33-0.611,0.388C10.457,19.741,8.528,19.147,7.402,18.489z M8.972,20.539
			c1.71,0.883,3.648,1.257,5.719,1.091c1.575-0.126,2.331,0.343,2.364,0.716c0.026,0.293-0.412,0.636-1.301,0.724
			C14.161,23.227,11.424,22.486,8.972,20.539z M7.339,21.947c0.425,0.391,0.61,0.785,0.508,1.081
			c-0.063,0.183-0.239,0.307-0.459,0.324c-0.344,0.026-0.678-0.201-0.894-0.607c-0.561-1.061-0.925-2.608-1.132-4.02
			C5.731,19.827,6.338,21.027,7.339,21.947z M14.659,21.223c-2.827,0.227-5.395-0.592-7.444-2.368
			c1.214,0.708,3.203,1.308,4.303,1.108c0.024-0.005,0.046-0.011,0.068-0.014c0.435-0.097,0.743-0.327,0.854-0.641
			c0.087-0.243,0.038-0.497-0.135-0.7c-0.273-0.319-0.789-0.435-1.416-0.316c-1.457,0.276-3.855-0.035-4.649-0.835
			c-0.03-0.03-0.065-0.049-0.105-0.054c-1.284-2.092-1.903-5.049-1.711-7.869c0.392,1.524,1.354,3.444,2.741,4.276
			c0.665,0.403,1.111,0.441,1.392,0.381c0.116-0.027,0.203-0.068,0.265-0.111c0.238-0.154,0.354-0.435,0.311-0.746
			c-0.059-0.438-0.403-0.822-0.879-0.976c-1.057-0.34-2.946-1.916-3.576-3.6C4.63,8.451,4.622,8.184,4.649,7.975
			c0.003-0.035-0.003-0.068-0.013-0.1c0.405-2.117,1.322-4.03,2.817-5.266c0.086-0.073,0.1-0.2,0.027-0.287
			C7.439,2.275,7.382,2.25,7.323,2.25c-0.046,0-0.092,0.013-0.13,0.046C5.449,3.734,4.328,6.178,4.049,9.084
			C4.038,9.097,4.03,9.111,4.022,9.13C3.925,9.368,3.814,9.632,3.706,9.924c-0.876,1.473-1.833,3.673-1.833,4.99
			c0,0.313,0.054,0.578,0.176,0.77c0.238,0.378,0.56,0.551,0.873,0.484c0.03-0.008,0.062-0.016,0.092-0.027
			c0.441-0.165,0.803-0.868,0.616-2.065c-0.235-1.525,0.022-2.741,0.354-3.719c-0.019,1.776,0.259,3.527,0.784,5.063
			c-0.162,1.13,0.203,5.317,1.365,7.514c0.295,0.557,0.776,0.862,1.287,0.824c0.049-0.005,0.097-0.011,0.143-0.021
			c0.319-0.07,0.568-0.281,0.668-0.576c0.16-0.457-0.065-1.008-0.616-1.514c-1.568-1.443-2.117-3.63-2.308-4.917
			c0.238,0.492,0.505,0.954,0.797,1.368c0.184,0.257,0.373,0.505,0.565,0.741c0.005,0.051,0.027,0.097,0.068,0.135
			c0.062,0.059,0.127,0.116,0.192,0.173c2.871,3.295,6.793,4.533,8.866,4.328c0.168-0.016,0.322-0.041,0.46-0.07
			c0.935-0.205,1.243-0.695,1.208-1.095C17.405,21.683,16.505,21.077,14.659,21.223z M2.871,15.76
			c-0.149,0.054-0.327-0.054-0.478-0.292c-0.343-0.546,0.097-2.152,0.835-3.755c-0.111,0.714-0.138,1.522,0,2.425
			C3.368,15.052,3.149,15.655,2.871,15.76z"/>
		<path class="st1" d="M42.335,120.825c-0.532,0.336-0.988,0.45-1.218,0.306c-0.15-0.095-0.147-0.276-0.139-0.35
			c0.025-0.216,0.193-0.517,0.587-0.654c0.839-0.291,2.102-1.266,2.975-2.482C44.105,118.878,43.346,120.188,42.335,120.825z
			 M47.356,122.723c-0.146,0.242-0.322,0.355-0.471,0.302c-0.28-0.098-0.513-0.697-0.392-1.614c0.12-0.905,0.075-1.712-0.052-2.424
			C47.214,120.575,47.688,122.172,47.356,122.723z M45.926,117.209c-0.116-0.289-0.23-0.551-0.335-0.789
			c-0.005-0.016-0.016-0.03-0.027-0.043c-0.341-2.9-1.514-5.317-3.287-6.72c-0.089-0.07-0.216-0.054-0.287,0.032
			c-0.07,0.089-0.057,0.219,0.032,0.286c1.522,1.203,2.479,3.098,2.93,5.206c-0.011,0.033-0.016,0.065-0.011,0.1
			c0.03,0.208,0.027,0.476-0.011,0.784c-0.595,1.698-2.449,3.314-3.498,3.676c-0.473,0.165-0.808,0.554-0.86,0.995
			c-0.035,0.311,0.086,0.589,0.327,0.741c0.065,0.04,0.151,0.078,0.268,0.103c0.281,0.054,0.727,0.005,1.384-0.408
			c1.37-0.865,2.289-2.803,2.649-4.336c0.251,2.817-0.306,5.785-1.544,7.901c-0.038,0.011-0.076,0.03-0.105,0.059
			c-0.776,0.816-3.168,1.179-4.63,0.933c-0.627-0.105-1.141,0.022-1.408,0.349c-0.168,0.205-0.214,0.459-0.122,0.703
			c0.119,0.311,0.433,0.535,0.87,0.619c0.022,0.005,0.043,0.008,0.068,0.013c1.103,0.176,3.076-0.465,4.276-1.2
			c-0.843,0.768-1.784,1.365-2.8,1.787h0.957c0.043-0.022,0.084-0.043,0.124-0.065c-0.027,0.022-0.051,0.043-0.078,0.065h0.627
			c0.508-0.446,1.003-0.946,1.465-1.5c0.062-0.06,0.127-0.116,0.189-0.178c0.038-0.035,0.06-0.084,0.062-0.135
			c0.189-0.241,0.373-0.492,0.549-0.752c0.286-0.422,0.543-0.889,0.77-1.387c-0.13,1.016-0.47,2.603-1.362,3.952h0.478
			c0.392-0.638,0.67-1.314,0.87-1.957c-0.081,0.643-0.192,1.314-0.346,1.957h0.422c0.476-2.097,0.578-4.468,0.446-5.274
			c0.495-1.546,0.733-3.303,0.676-5.079c0.354,0.973,0.635,2.184,0.432,3.711c-0.157,1.203,0.219,1.898,0.662,2.052
			c0.03,0.011,0.062,0.019,0.092,0.027c0.316,0.059,0.633-0.122,0.862-0.503C48.318,121.917,47.048,119.009,45.926,117.209z
			 M38.392,127.01c-0.316-0.051-0.549-0.192-0.619-0.376c-0.038-0.103-0.019-0.208,0.057-0.3c0.168-0.205,0.551-0.281,1.027-0.203
			c1.027,0.17,2.446,0.065,3.555-0.281C41.301,126.534,39.387,127.169,38.392,127.01z"/>
		<path class="st1" d="M43.821,31.175c-0.03-0.362-0.253-0.676-0.583-0.818c-0.245-0.106-0.758-0.203-1.433,0.337
			c-0.891,0.713-1.756,2.52-2.229,4.61c-0.024,0.05-0.048,0.101-0.071,0.153c-0.025,0.057-0.023,0.119,0.002,0.171
			c-0.021,0.1-0.04,0.201-0.059,0.303c-0.17,0.929-0.339,2.344-0.198,3.875c-0.378-1.114-0.714-2.396-0.714-2.838
			c0-0.285-0.16-0.544-0.429-0.692c-0.303-0.167-0.675-0.165-0.946,0.007c-0.16,0.101-0.423,0.352-0.391,0.901
			c0.028,0.468,0.541,1.418,1.526,2.822c0.011,0.015,0.845,1.194,1.317,1.756c0.152,0.521,0.352,1.037,0.613,1.536
			c0.036,0.07,0.107,0.109,0.181,0.109c0.032,0,0.064-0.007,0.094-0.023c0.1-0.052,0.138-0.175,0.086-0.275
			c-0.106-0.202-0.199-0.411-0.286-0.624c0.001-0.02,0.001-0.041-0.004-0.062c-0.401-1.67,1.239-3.507,2.096-4.136
			c0.35-0.257,0.521-0.586,0.47-0.905c-0.044-0.272-0.251-0.499-0.54-0.592c-0.43-0.139-0.934,0.026-1.35,0.441
			c-0.695,0.695-1.069,2.305-1.158,3.627c-0.35-1.766-0.237-3.691,0.132-5.384c0.85-1.767,2.215-2.624,3.125-3.197
			c0.092-0.058,0.179-0.113,0.262-0.166C43.669,31.896,43.852,31.546,43.821,31.175z M37.176,37.16
			c-0.011-0.178,0.016-0.415,0.202-0.533c0.071-0.045,0.159-0.067,0.25-0.067c0.095,0,0.194,0.024,0.282,0.073
			c0.082,0.045,0.218,0.148,0.218,0.335c0,0.497,0.4,2.042,0.842,3.284C38.16,39.137,37.208,37.701,37.176,37.16z M41.261,37.519
			c0.24-0.24,0.508-0.371,0.749-0.371c0.065,0,0.128,0.009,0.187,0.029c0.145,0.047,0.243,0.147,0.263,0.269
			c0.026,0.162-0.086,0.348-0.308,0.511c-0.608,0.446-1.363,1.241-1.845,2.167C40.452,39.092,40.759,38.021,41.261,37.519z
			 M43.112,31.769c-0.081,0.052-0.168,0.107-0.258,0.163c-0.719,0.452-1.707,1.073-2.535,2.156c0.466-1.435,1.104-2.567,1.74-3.076
			c0.273-0.218,0.537-0.331,0.768-0.331c0.088,0,0.171,0.016,0.248,0.049c0.191,0.083,0.321,0.265,0.339,0.477
			C43.433,31.43,43.323,31.634,43.112,31.769z"/>
		<path class="st1" d="M54.782,64.379c0.082,0.053,0.17,0.108,0.262,0.166c0.911,0.573,2.275,1.431,3.125,3.197
			c0.368,1.693,0.482,3.617,0.132,5.384c-0.09-1.322-0.463-2.932-1.158-3.627c-0.415-0.415-0.92-0.58-1.35-0.441
			c-0.289,0.093-0.496,0.32-0.54,0.592c-0.051,0.318,0.12,0.648,0.47,0.905c0.857,0.628,2.497,2.466,2.096,4.136
			c-0.005,0.021-0.006,0.042-0.004,0.062c-0.087,0.212-0.18,0.422-0.286,0.623c-0.052,0.1-0.014,0.223,0.086,0.275
			c0.03,0.016,0.062,0.023,0.094,0.023c0.073,0,0.144-0.04,0.181-0.109c0.261-0.498,0.462-1.015,0.613-1.536
			c0.472-0.563,1.306-1.741,1.317-1.756c0.985-1.404,1.498-2.354,1.526-2.822c0.032-0.549-0.231-0.8-0.391-0.901
			c-0.271-0.171-0.643-0.174-0.946-0.007c-0.268,0.148-0.429,0.407-0.429,0.692c0,0.442-0.336,1.724-0.714,2.838
			c0.141-1.531-0.028-2.946-0.198-3.875c-0.019-0.101-0.038-0.202-0.059-0.303c0.025-0.052,0.027-0.114,0.001-0.171
			c-0.023-0.052-0.047-0.103-0.071-0.153c-0.473-2.09-1.338-3.897-2.229-4.61c-0.675-0.54-1.187-0.443-1.433-0.337
			c-0.33,0.142-0.554,0.456-0.583,0.818C54.263,63.813,54.446,64.163,54.782,64.379z M59.145,72.519
			c0.443-1.242,0.842-2.787,0.842-3.284c0-0.187,0.137-0.29,0.218-0.335c0.088-0.049,0.187-0.073,0.282-0.073
			c0.091,0,0.179,0.022,0.25,0.067c0.186,0.117,0.212,0.354,0.202,0.533C60.907,69.968,59.955,71.404,59.145,72.519z M57.808,72.392
			c-0.482-0.926-1.237-1.721-1.845-2.167c-0.222-0.163-0.335-0.349-0.309-0.511c0.02-0.122,0.118-0.223,0.263-0.269
			c0.06-0.019,0.122-0.029,0.187-0.029c0.24,0,0.509,0.13,0.749,0.37C57.356,70.288,57.663,71.359,57.808,72.392z M54.7,63.476
			c0.017-0.212,0.147-0.395,0.339-0.477c0.077-0.033,0.16-0.05,0.249-0.05c0.231,0,0.495,0.113,0.768,0.331
			c0.636,0.509,1.274,1.641,1.74,3.076c-0.828-1.083-1.817-1.705-2.535-2.156c-0.09-0.057-0.177-0.111-0.258-0.163
			C54.792,63.901,54.682,63.697,54.7,63.476z"/>
		<path class="st1" d="M112.932,35.634c0.056-0.08,0.115-0.165,0.177-0.254c0.612-0.885,1.527-2.211,3.329-2.985
			c1.707-0.295,3.635-0.326,5.384,0.1c-1.325,0.033-2.95,0.337-3.674,1.001c-0.433,0.397-0.619,0.894-0.499,1.329
			c0.081,0.293,0.299,0.509,0.568,0.565c0.316,0.065,0.653-0.092,0.924-0.43c0.665-0.829,2.571-2.389,4.222-1.916
			c0.021,0.006,0.041,0.007,0.062,0.007c0.209,0.096,0.413,0.198,0.611,0.313c0.097,0.057,0.222,0.023,0.279-0.074
			c0.017-0.029,0.026-0.061,0.027-0.093c0.003-0.073-0.033-0.146-0.101-0.185c-0.487-0.282-0.994-0.505-1.508-0.679
			c-0.542-0.496-1.683-1.38-1.698-1.391c-1.361-1.044-2.287-1.598-2.754-1.646c-0.547-0.056-0.81,0.197-0.917,0.352
			c-0.183,0.264-0.201,0.635-0.047,0.945c0.136,0.275,0.388,0.446,0.673,0.458c0.442,0.019,1.708,0.41,2.804,0.835
			c-1.523-0.207-2.944-0.099-3.88,0.031c-0.102,0.014-0.204,0.029-0.305,0.046c-0.051-0.027-0.113-0.032-0.171-0.009
			c-0.053,0.021-0.105,0.043-0.156,0.065c-2.108,0.383-3.951,1.169-4.702,2.028c-0.569,0.651-0.494,1.167-0.399,1.417
			c0.128,0.336,0.431,0.573,0.792,0.618C112.344,36.128,112.702,35.961,112.932,35.634z M121.252,31.626
			c-1.222-0.496-2.749-0.962-3.245-0.983c-0.187-0.008-0.284-0.149-0.325-0.232c-0.045-0.09-0.065-0.19-0.061-0.285
			c0.004-0.091,0.03-0.177,0.078-0.247c0.125-0.18,0.363-0.197,0.541-0.178C118.78,29.756,120.173,30.769,121.252,31.626z
			 M121.068,32.956c-0.946,0.441-1.773,1.162-2.244,1.75c-0.172,0.215-0.363,0.319-0.524,0.286
			c-0.121-0.025-0.217-0.127-0.258-0.274c-0.017-0.061-0.024-0.124-0.021-0.188c0.01-0.24,0.152-0.502,0.402-0.732
			C118.946,33.317,120.029,33.056,121.068,32.956z M112.026,35.677c-0.211-0.027-0.388-0.164-0.462-0.359
			c-0.03-0.078-0.043-0.162-0.039-0.25c0.01-0.231,0.134-0.49,0.364-0.753c0.536-0.613,1.695-1.202,3.148-1.606
			c-1.118,0.781-1.781,1.742-2.263,2.44c-0.061,0.088-0.119,0.172-0.174,0.251C112.455,35.603,112.246,35.705,112.026,35.677z"/>
		<path class="st1" d="M89.318,7.711c-0.07,0.069-0.143,0.142-0.219,0.219c-0.758,0.764-1.894,1.907-3.803,2.351
			c-1.733-0.011-3.635-0.321-5.282-1.049c1.31,0.202,2.963,0.189,3.793-0.337c0.496-0.314,0.767-0.771,0.726-1.221
			c-0.028-0.302-0.204-0.554-0.46-0.656c-0.299-0.12-0.659-0.025-0.986,0.261c-0.801,0.699-2.953,1.897-4.494,1.141
			c-0.019-0.009-0.039-0.015-0.06-0.018c-0.188-0.132-0.372-0.268-0.546-0.415C77.901,7.914,77.773,7.924,77.7,8.01
			c-0.022,0.026-0.036,0.056-0.043,0.087c-0.016,0.072,0.007,0.149,0.067,0.2c0.429,0.364,0.889,0.672,1.365,0.934
			c0.446,0.584,1.413,1.655,1.426,1.669c1.155,1.268,1.969,1.977,2.42,2.106c0.529,0.152,0.831-0.05,0.965-0.184
			c0.227-0.227,0.31-0.589,0.213-0.922c-0.086-0.294-0.303-0.507-0.581-0.57c-0.432-0.097-1.609-0.705-2.613-1.317
			c1.463,0.472,2.881,0.617,3.824,0.654c0.103,0.004,0.206,0.007,0.308,0.009c0.046,0.035,0.106,0.051,0.166,0.039
			c0.055-0.012,0.111-0.024,0.165-0.036c2.143-0.005,4.095-0.453,4.986-1.167c0.674-0.54,0.692-1.062,0.643-1.324
			c-0.067-0.353-0.324-0.64-0.67-0.748C89.984,7.329,89.603,7.43,89.318,7.711z M80.421,10.188c1.115,0.703,2.536,1.432,3.021,1.54
			c0.182,0.041,0.253,0.197,0.279,0.286c0.028,0.096,0.03,0.198,0.01,0.291c-0.02,0.089-0.061,0.169-0.12,0.229
			c-0.155,0.156-0.392,0.13-0.564,0.08C82.525,12.465,81.332,11.222,80.421,10.188z M80.838,8.912
			c1.009-0.267,1.95-0.831,2.518-1.326c0.208-0.181,0.414-0.25,0.566-0.189c0.115,0.046,0.191,0.164,0.205,0.315
			c0.006,0.063,0.001,0.126-0.013,0.189c-0.053,0.235-0.238,0.468-0.525,0.65C82.989,8.93,81.877,8.996,80.838,8.912z M90.218,7.829
			c0.203,0.063,0.353,0.23,0.391,0.435c0.016,0.082,0.013,0.167-0.006,0.253c-0.051,0.225-0.218,0.459-0.491,0.677
			c-0.636,0.509-1.88,0.884-3.382,1.025c1.238-0.572,2.061-1.4,2.659-2.002c0.075-0.076,0.147-0.148,0.216-0.216
			C89.783,7.825,90.006,7.762,90.218,7.829z"/>
		<path class="st1" d="M120.96,105.951c0.34-0.127,0.581-0.428,0.628-0.784c0.035-0.265-0.012-0.785-0.715-1.287
			c-0.929-0.663-2.903-1.003-5.043-0.888c-0.055-0.009-0.111-0.018-0.167-0.027c-0.062-0.009-0.121,0.01-0.164,0.048
			c-0.102,0.008-0.205,0.016-0.307,0.026c-0.94,0.089-2.348,0.312-3.782,0.865c0.969-0.667,2.11-1.34,2.536-1.46
			c0.274-0.078,0.48-0.302,0.549-0.601c0.078-0.337-0.025-0.694-0.264-0.909c-0.141-0.126-0.454-0.311-0.974-0.131
			c-0.443,0.154-1.217,0.907-2.299,2.237c-0.012,0.014-0.918,1.138-1.331,1.745c-0.46,0.288-0.902,0.622-1.311,1.009
			c-0.057,0.054-0.076,0.133-0.056,0.204c0.009,0.031,0.025,0.06,0.048,0.084c0.077,0.082,0.206,0.085,0.288,0.008
			c0.165-0.157,0.341-0.303,0.522-0.445c0.02-0.004,0.04-0.01,0.059-0.021c1.497-0.841,3.712,0.236,4.551,0.89
			c0.342,0.267,0.706,0.342,0.999,0.205c0.25-0.116,0.412-0.377,0.423-0.681c0.016-0.451-0.28-0.892-0.793-1.178
			c-0.858-0.479-2.509-0.4-3.806-0.126c1.604-0.818,3.486-1.234,5.216-1.341c1.932,0.337,3.129,1.415,3.928,2.136
			c0.08,0.073,0.157,0.142,0.231,0.206C120.225,106.002,120.612,106.082,120.96,105.951z M113.391,101.19
			c0.169-0.059,0.404-0.098,0.567,0.049c0.063,0.056,0.108,0.134,0.133,0.222c0.026,0.091,0.029,0.193,0.007,0.291
			c-0.021,0.091-0.083,0.25-0.263,0.301c-0.478,0.136-1.856,0.941-2.93,1.706C111.757,102.675,112.878,101.368,113.391,101.19z
			 M114.158,105.218c0.297,0.166,0.495,0.388,0.561,0.619c0.018,0.062,0.026,0.125,0.023,0.188
			c-0.006,0.152-0.076,0.274-0.188,0.326c-0.149,0.069-0.358,0.012-0.576-0.158c-0.595-0.463-1.565-0.973-2.587-1.184
			C112.425,104.868,113.539,104.872,114.158,105.218z M120.195,105.432c-0.072-0.064-0.148-0.132-0.228-0.204
			c-0.63-0.568-1.498-1.349-2.766-1.851c1.507,0.057,2.771,0.362,3.434,0.836c0.284,0.203,0.465,0.427,0.528,0.649
			c0.024,0.085,0.031,0.169,0.02,0.253c-0.027,0.207-0.168,0.381-0.367,0.456C120.61,105.648,120.383,105.597,120.195,105.432z"/>
		<path class="st1" d="M65.027,50.152c-0.194-0.397-0.685-0.783-1.481-0.675c-2.034,0.275-5.217-0.63-6.92-1.387
			c-0.473-0.339-0.922-0.673-1.354-0.994c-0.4-0.298-0.79-0.587-1.178-0.866c0.98,0.319,2.019,0.51,2.813,0.51
			c0.273,0,0.517-0.022,0.72-0.07c0.53-0.124,0.89-0.398,0.988-0.752c0.065-0.236-0.001-0.48-0.179-0.652
			c-0.262-0.254-0.693-0.312-1.183-0.16c-1.155,0.359-4.037,0.27-5.407-0.517c-0.086-0.049-0.194-0.028-0.257,0.048
			c-0.916-0.484-1.895-0.877-3.024-1.138c-0.11-0.026-0.219,0.043-0.244,0.153c-0.025,0.11,0.043,0.219,0.153,0.244
			c0.641,0.148,1.233,0.341,1.794,0.571c1.205,0.775,1.953,2.804,2.219,3.641c0.202,0.636,0.621,0.905,0.978,0.905
			c0.032,0,0.064-0.002,0.095-0.007c0.339-0.047,0.709-0.357,0.732-1.086c0.016-0.514-0.358-1.111-0.901-1.687
			c0.539,0.375,1.078,0.775,1.637,1.191c0.345,0.256,0.7,0.52,1.069,0.788c0.014,0.057,0.053,0.108,0.11,0.135
			c0.068,0.032,0.139,0.065,0.213,0.098c1.142,0.817,2.426,1.667,3.955,2.453c1.406,0.723,2.401,0.948,3.095,0.948
			c0.751,0,1.15-0.263,1.335-0.445C65.148,51.067,65.234,50.577,65.027,50.152z M57.374,45.495c0.398-0.124,0.663-0.048,0.779,0.063
			c0.071,0.069,0.095,0.158,0.069,0.251c-0.056,0.203-0.313,0.377-0.688,0.464c-0.898,0.21-2.744-0.134-4.17-0.75
			C54.831,45.805,56.532,45.757,57.374,45.495z M53.505,48.602c-0.2,0.028-0.482-0.154-0.629-0.618
			c-0.191-0.602-0.622-1.792-1.297-2.755c1.19,0.82,2.33,1.944,2.307,2.678C53.873,48.299,53.724,48.572,53.505,48.602z
			 M64.522,51.11c-0.473,0.463-1.761,0.556-3.959-0.574c-0.925-0.476-1.761-0.976-2.531-1.479c1.757,0.573,3.989,1.037,5.568,0.824
			c0.581-0.078,0.928,0.181,1.06,0.45C64.792,50.599,64.739,50.897,64.522,51.11z"/>
		<path class="st1" d="M107.617,50.31c0.114-0.234,0.239-0.695,0.002-1.408c-0.219-0.659-0.745-1.532-1.874-2.639
			c-1.228-1.204-2.438-2.155-3.573-2.982c-0.055-0.06-0.108-0.117-0.161-0.172c-0.044-0.046-0.104-0.066-0.163-0.062
			c-0.371-0.266-0.733-0.52-1.085-0.767c-0.57-0.4-1.119-0.786-1.646-1.179c0.717,0.334,1.402,0.501,1.885,0.324
			c0.685-0.251,0.862-0.7,0.8-1.036c-0.006-0.031-0.014-0.062-0.024-0.092c-0.113-0.34-0.5-0.652-1.167-0.644
			c-0.878,0.011-3.039-0.06-4.154-0.96c-0.395-0.46-0.765-0.962-1.107-1.523c-0.059-0.096-0.184-0.126-0.28-0.068
			c-0.096,0.059-0.127,0.184-0.068,0.28c0.603,0.989,1.284,1.795,2.032,2.512c-0.052,0.084-0.038,0.193,0.036,0.259
			c1.178,1.052,2.169,3.76,2.192,4.969c0.01,0.513,0.201,0.904,0.524,1.073c0.219,0.114,0.472,0.101,0.675-0.036
			c0.305-0.205,0.452-0.633,0.403-1.174c-0.019-0.207-0.074-0.446-0.16-0.705c-0.25-0.754-0.758-1.68-1.369-2.509
			c0.387,0.28,0.784,0.559,1.193,0.845c0.441,0.309,0.898,0.63,1.369,0.972c1.254,1.378,3.115,4.114,3.494,6.131
			c0.148,0.789,0.669,1.134,1.107,1.193C106.969,50.974,107.407,50.738,107.617,50.31z M98.437,41.298
			c1.034,1.16,1.941,2.804,2.024,3.722c0.035,0.383-0.049,0.682-0.224,0.799c-0.08,0.054-0.173,0.058-0.26,0.013
			c-0.142-0.074-0.297-0.302-0.305-0.719C99.655,44.231,99.165,42.601,98.437,41.298z M100.863,41.042
			c-0.689,0.253-2.115-0.476-3.268-1.347c1.126,0.338,2.391,0.372,3.023,0.364c0.487-0.006,0.748,0.204,0.785,0.402
			C101.443,40.68,101.231,40.907,100.863,41.042z M106.555,50.507c-0.297-0.04-0.653-0.288-0.761-0.864
			c-0.295-1.565-1.438-3.538-2.535-5.025c0.719,0.572,1.458,1.208,2.2,1.936c1.764,1.73,2.082,2.982,1.791,3.577
			C107.118,50.402,106.851,50.547,106.555,50.507z"/>
		<path class="st1" d="M21.418,112.214c-0.219-0.14-0.664-0.315-1.399-0.16c-0.679,0.143-1.607,0.569-2.833,1.566
			c-1.334,1.084-2.415,2.18-3.364,3.215c-0.066,0.048-0.128,0.095-0.188,0.141c-0.05,0.038-0.078,0.096-0.08,0.155
			c-0.306,0.339-0.599,0.67-0.884,0.992c-0.462,0.522-0.906,1.024-1.356,1.503c0.412-0.675,0.655-1.337,0.533-1.836
			c-0.172-0.708-0.599-0.935-0.94-0.912c-0.031,0.002-0.063,0.007-0.095,0.013c-0.35,0.074-0.704,0.424-0.771,1.088
			c-0.088,0.874-0.401,3.013-1.421,4.02c-0.502,0.34-1.041,0.652-1.638,0.929c-0.102,0.047-0.146,0.169-0.099,0.271
			c0.047,0.102,0.168,0.146,0.271,0.099c1.051-0.488,1.928-1.075,2.724-1.737c0.077,0.061,0.187,0.06,0.261-0.007
			c1.178-1.052,3.98-1.733,5.184-1.62c0.511,0.048,0.921-0.098,1.125-0.4c0.138-0.205,0.153-0.457,0.04-0.675
			c-0.169-0.326-0.578-0.521-1.122-0.533c-0.208-0.005-0.451,0.024-0.718,0.08c-0.777,0.164-1.755,0.564-2.647,1.078
			c0.321-0.353,0.643-0.717,0.974-1.09c0.356-0.403,0.727-0.822,1.12-1.251c1.51-1.091,4.438-2.633,6.485-2.783
			c0.8-0.059,1.202-0.537,1.31-0.966C22.005,112.933,21.82,112.471,21.418,112.214z M11.432,120.323
			c1.268-0.897,3.004-1.614,3.926-1.593c0.384,0.008,0.672,0.125,0.769,0.313c0.045,0.086,0.039,0.178-0.016,0.26
			c-0.09,0.133-0.334,0.262-0.749,0.223C14.483,119.443,12.809,119.746,11.432,120.323z M11.45,117.884
			c0.174,0.713-0.71,2.048-1.705,3.096c0.462-1.081,0.639-2.334,0.702-2.963c0.049-0.485,0.287-0.721,0.488-0.735
			C11.155,117.267,11.358,117.503,11.45,117.884z M21.494,113.291c-0.073,0.29-0.36,0.616-0.944,0.659
			c-1.589,0.117-3.677,1.032-5.278,1.954c0.649-0.651,1.364-1.313,2.171-1.969c1.918-1.559,3.197-1.734,3.756-1.378
			C21.454,112.721,21.567,113.002,21.494,113.291z"/>
		<path class="st1" d="M16.26,64.436c-0.391,0.206-0.762,0.708-0.631,1.5c0.336,2.025-0.475,5.233-1.18,6.958
			c-0.325,0.483-0.645,0.942-0.953,1.383c-0.285,0.409-0.563,0.807-0.831,1.203c0.29-0.989,0.449-2.033,0.426-2.827
			c-0.008-0.273-0.038-0.516-0.091-0.717c-0.139-0.526-0.424-0.877-0.781-0.965c-0.238-0.058-0.48,0.016-0.647,0.198
			c-0.246,0.269-0.292,0.702-0.125,1.187c0.393,1.144,0.39,4.027-0.355,5.42c-0.047,0.088-0.022,0.195,0.055,0.255
			c-0.457,0.929-0.82,1.92-1.047,3.056c-0.022,0.11,0.049,0.218,0.16,0.24c0.11,0.022,0.218-0.049,0.24-0.16
			c0.129-0.645,0.304-1.243,0.517-1.81c0.739-1.228,2.744-2.036,3.573-2.326c0.63-0.221,0.887-0.647,0.876-1.005
			c-0.001-0.032-0.004-0.064-0.009-0.095c-0.057-0.337-0.378-0.698-1.107-0.699c-0.514-0.001-1.1,0.391-1.659,0.95
			c0.359-0.55,0.743-1.101,1.141-1.672c0.246-0.352,0.499-0.715,0.756-1.092c0.057-0.016,0.106-0.056,0.132-0.114
			c0.03-0.069,0.061-0.141,0.092-0.216c0.783-1.166,1.594-2.474,2.334-4.026c0.681-1.427,0.876-2.428,0.855-3.122
			c-0.022-0.75-0.298-1.142-0.485-1.322C17.171,64.287,16.678,64.216,16.26,64.436z M11.833,72.224
			c-0.136-0.394-0.068-0.661,0.04-0.78c0.066-0.073,0.155-0.1,0.249-0.077c0.205,0.05,0.386,0.302,0.485,0.674
			c0.236,0.891-0.052,2.746-0.625,4.19C12.219,74.757,12.12,73.058,11.833,72.224z M15.054,75.999
			c0.034,0.199-0.14,0.486-0.599,0.647c-0.596,0.209-1.773,0.675-2.715,1.379c0.784-1.214,1.874-2.387,2.608-2.386
			C14.74,75.64,15.017,75.781,15.054,75.999z M17.232,64.912c0.477,0.459,0.608,1.744-0.456,3.974
			c-0.448,0.939-0.923,1.789-1.403,2.574c0.52-1.774,0.918-4.018,0.658-5.59c-0.096-0.578,0.153-0.933,0.418-1.073
			C16.714,64.658,17.014,64.702,17.232,64.912z"/>
		<path class="st1" d="M31.276,26.292c0.439-0.05,0.967-0.384,1.132-1.17c0.421-2.009,2.339-4.705,3.621-6.057
			c0.478-0.332,0.942-0.644,1.389-0.944c0.414-0.278,0.818-0.548,1.21-0.82c-0.629,0.816-1.156,1.732-1.421,2.48
			c-0.091,0.257-0.152,0.495-0.175,0.701c-0.061,0.541,0.077,0.972,0.379,1.183c0.201,0.141,0.453,0.16,0.675,0.05
			c0.327-0.162,0.526-0.549,0.547-1.061c0.048-1.209,1.096-3.895,2.296-4.922c0.075-0.065,0.091-0.173,0.041-0.258
			c0.762-0.701,1.461-1.492,2.084-2.468c0.061-0.095,0.033-0.221-0.062-0.282c-0.095-0.061-0.221-0.033-0.282,0.062
			c-0.354,0.554-0.734,1.048-1.138,1.5c-1.134,0.876-3.296,0.903-4.173,0.873c-0.667-0.022-1.061,0.282-1.181,0.619
			c-0.011,0.03-0.019,0.061-0.026,0.092c-0.069,0.335,0.099,0.787,0.778,1.053c0.479,0.187,1.167,0.034,1.891-0.284
			c-0.534,0.382-1.091,0.756-1.67,1.144c-0.356,0.239-0.724,0.485-1.1,0.744c-0.059-0.006-0.119,0.014-0.164,0.059
			c-0.053,0.053-0.108,0.109-0.164,0.168c-1.152,0.803-2.382,1.729-3.634,2.906c-1.151,1.083-1.696,1.946-1.929,2.6
			c-0.251,0.708-0.136,1.172-0.027,1.407C30.373,26.101,30.806,26.346,31.276,26.292z M38.225,20.639
			c-0.017,0.417-0.176,0.641-0.32,0.712c-0.088,0.044-0.181,0.037-0.26-0.018c-0.173-0.121-0.25-0.421-0.207-0.804
			c0.103-0.916,1.044-2.541,2.101-3.679C38.783,18.139,38.26,19.757,38.225,20.639z M36.591,15.953
			c0.041-0.198,0.306-0.402,0.793-0.386c0.631,0.021,1.897,0.013,3.03-0.301c-1.171,0.847-2.612,1.545-3.295,1.278
			C36.753,16.402,36.546,16.17,36.591,15.953z M30.542,25.497c-0.279-0.601,0.065-1.846,1.865-3.539
			c0.758-0.713,1.509-1.333,2.24-1.89c-1.128,1.464-2.312,3.412-2.639,4.971c-0.12,0.574-0.481,0.814-0.779,0.848
			C30.933,25.921,30.67,25.772,30.542,25.497z"/>
		<path class="st1" d="M95.261,61.98c-0.893-0.872-1.959-1.631-3.136-2.278c0.855,0.16,1.797,0.275,2.642,0.275
			c0.69,0,1.315-0.077,1.773-0.27c0.414-0.174,0.675-0.434,0.777-0.773c0.111-0.371,0.068-0.665-0.127-0.872
			c-0.432-0.46-1.458-0.295-2.405-0.074l-0.108,0.025c-0.333,0.075-0.664,0.16-0.983,0.241c-1.295,0.33-2.52,0.641-3.87,0.374
			c-0.53-0.208-1.073-0.397-1.624-0.567c-0.561-0.298-1.147-0.528-1.747-0.677c-0.097-0.024-0.197,0.026-0.237,0.118
			c-0.004,0.01-0.004,0.02-0.007,0.029c-0.324-0.072-0.648-0.139-0.973-0.199c3.137-0.021,4.919-0.543,5.431-1.588
			c0.26-0.53,0.278-0.921,0.054-1.163c-0.415-0.449-1.445-0.108-1.869,0.059c-0.701,0.277-1.365,0.63-2.006,0.971
			c-1.009,0.537-1.962,1.044-3.071,1.297c-0.085,0.02-0.144,0.092-0.154,0.176c-0.943-0.116-1.877-0.179-2.786-0.192
			c-0.229-0.049-0.464-0.094-0.703-0.136c0.91-0.387,1.9-0.894,2.796-1.412c0.962-0.558,4.137-2.493,4.608-3.988
			c0.167-0.53-0.026-0.965-0.544-1.225c-1.259-0.632-2.539,1.376-3.386,2.705c-0.241,0.378-0.448,0.703-0.594,0.872
			c-1.57,1.811-3.484,2.963-5.535,3.33c-0.054,0.01-0.099,0.042-0.129,0.084c-0.57,0.09-1.114,0.206-1.624,0.348
			c-0.108,0.03-0.172,0.143-0.142,0.251c0.03,0.109,0.143,0.172,0.251,0.142c1.321-0.367,2.87-0.556,4.524-0.569
			c1.755,0.603,3.138,1.91,3.858,2.707c0.099,0.109,0.262,0.382,0.452,0.698c0.533,0.89,1.263,2.109,2.014,2.222
			c0.039,0.006,0.077,0.009,0.115,0.009c0.191,0,0.374-0.074,0.532-0.216c0.321-0.288,0.466-0.641,0.433-1.049
			c-0.101-1.242-1.904-2.654-2.59-3.093c-0.739-0.473-1.576-0.867-2.522-1.186c1.359,0.117,2.748,0.346,4.107,0.686
			c1.746,1.267,3.168,3.241,3.854,5.386c0.072,0.225,0.12,0.791,0.17,1.39c0.173,2.043,0.356,3.495,1.122,3.495
			c0.014,0,0.028-0.001,0.042-0.002c0.355-0.024,0.641-0.202,0.828-0.515c0.789-1.324-0.326-4.927-0.572-5.467
			c-0.613-1.344-1.547-2.518-2.66-3.409c0.001,0,0.001,0,0.002,0.001c0.015,0.016,0.031,0.03,0.051,0.04
			c0.151,0.079,0.398,0.173,0.711,0.271c0.117,0.05,0.233,0.101,0.348,0.153c0.003,0.068,0.04,0.132,0.104,0.168
			c3.872,2.177,6.775,7.054,4.529,11.802c-0.102,0.216-0.372,0.576-0.657,0.957c-0.71,0.947-1.515,2.021-1.268,2.694
			c0.09,0.246,0.302,0.408,0.628,0.482c0.117,0.026,0.231,0.039,0.345,0.039c1.796,0,3.168-3.163,3.483-4.407
			C98.704,67.651,97.82,64.48,95.261,61.98z M93.795,58.649c0.317-0.081,0.645-0.165,0.972-0.239l0.111-0.026
			c0.417-0.097,1.685-0.394,2.015-0.043c0.088,0.094,0.099,0.254,0.033,0.476c-0.066,0.219-0.244,0.388-0.544,0.514
			c-1.088,0.458-3.411,0.166-5.028-0.21C92.178,59.062,92.973,58.859,93.795,58.649z M87.038,55.971
			c0.632-0.336,1.285-0.684,1.965-0.952c0.421-0.166,0.814-0.254,1.086-0.254c0.159,0,0.277,0.03,0.334,0.093
			c0.094,0.101,0.05,0.359-0.121,0.708c-0.311,0.635-1.492,1.352-5.23,1.36C85.76,56.651,86.406,56.307,87.038,55.971z
			 M83.322,53.975c0.165-0.191,0.381-0.529,0.63-0.92c0.645-1.012,1.678-2.632,2.554-2.632c0.104,0,0.206,0.023,0.305,0.073
			c0.341,0.171,0.446,0.399,0.338,0.738c-0.284,0.901-1.979,2.34-4.424,3.758c-0.384,0.222-0.765,0.432-1.139,0.626
			C82.2,55.148,82.781,54.599,83.322,53.975z M87.356,61.697c0.023,0.279-0.075,0.512-0.299,0.713
			c-0.101,0.091-0.201,0.125-0.314,0.108c-0.561-0.085-1.29-1.302-1.725-2.029c-0.209-0.348-0.373-0.623-0.499-0.762
			c-0.535-0.592-1.424-1.457-2.561-2.133c1.15,0.336,2.141,0.774,2.995,1.32C85.702,59.394,87.276,60.705,87.356,61.697z
			 M91.832,62.528c0.3,0.658,1.246,3.993,0.593,5.089c-0.12,0.201-0.281,0.302-0.505,0.317c-0.003,0-0.007,0-0.01,0
			c-0.457,0-0.635-2.106-0.721-3.122c-0.057-0.676-0.102-1.211-0.188-1.479c-0.612-1.912-1.788-3.694-3.258-4.994
			c0.087,0.026,0.173,0.052,0.259,0.078C89.625,59.278,91.02,60.749,91.832,62.528z M97.423,71.049
			c-0.34,1.344-1.783,4.424-3.342,4.071c-0.276-0.063-0.321-0.185-0.336-0.225c-0.171-0.465,0.661-1.574,1.212-2.309
			c0.311-0.415,0.58-0.773,0.7-1.027c1.068-2.258,1.112-4.694,0.126-7.045c-0.591-1.41-1.521-2.697-2.703-3.764
			c0.692,0.461,1.33,0.968,1.897,1.521C97.46,64.699,98.283,67.652,97.423,71.049z"/>
		<path class="st1" d="M14.91,99.471c-0.153,0.289-0.312,0.588-0.477,0.88l-0.056,0.1c-0.208,0.374-0.841,1.512-1.322,1.521
			c-0.129,0.002-0.255-0.097-0.374-0.295c-0.118-0.196-0.123-0.441-0.015-0.749c0.392-1.113,2.17-2.637,3.535-3.582
			C15.692,97.997,15.307,98.722,14.91,99.471z M21.434,96.269c-0.176,0.694-0.358,1.411-0.616,2.094
			c-0.16,0.423-0.359,0.773-0.542,0.975c-0.107,0.118-0.208,0.185-0.293,0.185c-0.138,0.001-0.299-0.205-0.442-0.565
			c-0.261-0.657,0.001-2.013,2.508-4.786C21.79,94.865,21.61,95.575,21.434,96.269z M25.411,94.859
			c0.03,0.251,0.135,0.637,0.257,1.085c0.316,1.158,0.821,3.012,0.232,3.66c-0.07,0.077-0.156,0.137-0.259,0.177
			c-0.356,0.137-0.595,0.062-0.774-0.246c-0.476-0.816-0.402-3.039,0.191-5.801c0.093-0.434,0.195-0.857,0.302-1.264
			C25.296,93.24,25.312,94.039,25.411,94.859z M16.981,92.656c-0.222-0.171-0.329-0.4-0.327-0.701
			c0.001-0.136,0.042-0.233,0.132-0.305c0.44-0.359,1.831-0.08,2.662,0.086c0.398,0.08,0.712,0.143,0.9,0.143
			c0.798,0.002,2.036-0.075,3.3-0.462c-1.022,0.626-2.012,1.065-2.991,1.33C19.798,92.979,17.77,93.263,16.981,92.656z
			 M13.358,95.411c-0.689-0.22-3.794-1.761-4.166-2.981c-0.068-0.224-0.035-0.411,0.105-0.587c0.002-0.003,0.004-0.005,0.007-0.008
			c0.307-0.338,1.986,0.946,2.796,1.565c0.539,0.412,0.965,0.738,1.222,0.855c1.827,0.832,3.937,1.159,5.888,0.944
			c-0.077,0.047-0.155,0.094-0.232,0.14C17.247,95.962,15.221,96.005,13.358,95.411z M27.839,86.613
			c-0.1-0.051-0.224-0.011-0.273,0.089c-0.616,1.225-1.519,2.5-2.619,3.733c-1.627,0.895-3.525,1.038-4.598,1.035
			c-0.149,0-0.46-0.062-0.822-0.132c-1.016-0.205-2.408-0.484-2.998-0.003c-0.032,0.024-0.059,0.051-0.084,0.078
			c-0.13,0.141-0.197,0.327-0.2,0.541c-0.003,0.43,0.162,0.776,0.486,1.024c0.987,0.759,3.244,0.376,4.03,0.162
			c0.849-0.23,1.703-0.584,2.573-1.07c-1,0.927-2.103,1.803-3.268,2.579c-2.111,0.443-4.528,0.168-6.579-0.765
			c-0.214-0.097-0.665-0.443-1.143-0.808c-1.627-1.246-2.827-2.087-3.341-1.519c-0.011,0.011-0.019,0.021-0.027,0.032
			c-0.222,0.278-0.281,0.611-0.176,0.96c0.449,1.473,3.868,3.071,4.433,3.252c1.384,0.441,2.854,0.543,4.244,0.332
			c-0.159,0.06-0.395,0.179-0.678,0.343c-0.114,0.054-0.23,0.105-0.346,0.157c-0.054-0.043-0.124-0.059-0.195-0.038
			c-4.214,1.403-9.777,0.276-11.783-4.579c-0.092-0.222-0.176-0.662-0.268-1.13c-0.222-1.162-0.476-2.481-1.141-2.749
			c-0.243-0.097-0.506-0.051-0.779,0.14c-0.1,0.07-0.187,0.146-0.262,0.23c-1.206,1.33,0.214,4.471,0.922,5.541
			c1.998,3.006,4.939,4.484,8.509,4.268c1.246-0.073,2.525-0.354,3.795-0.789c-0.695,0.524-1.414,1.146-1.981,1.771
			c-0.462,0.511-0.825,1.024-0.992,1.495c-0.149,0.424-0.13,0.792,0.051,1.095c0.2,0.332,0.446,0.497,0.73,0.492
			c0.632-0.011,1.2-0.881,1.673-1.73l0.054-0.097c0.168-0.297,0.327-0.597,0.481-0.889c0.627-1.181,1.219-2.298,2.325-3.117
			c0.511-0.254,1.014-0.53,1.511-0.822c0.597-0.214,1.162-0.495,1.676-0.838c0.084-0.057,0.114-0.165,0.073-0.254
			c-0.005-0.011-0.014-0.016-0.019-0.027c0.27-0.189,0.538-0.384,0.803-0.584c-2.095,2.336-2.906,4.006-2.476,5.087
			c0.219,0.549,0.495,0.824,0.824,0.822c0.611-0.005,1.052-0.998,1.214-1.424c0.265-0.703,0.451-1.433,0.63-2.138
			c0.281-1.105,0.546-2.152,1.103-3.144c0.043-0.076,0.03-0.168-0.027-0.232c0.719-0.619,1.395-1.271,2.014-1.933
			c0.189-0.138,0.381-0.281,0.573-0.43c-0.324,0.935-0.614,2.008-0.833,3.019c-0.232,1.087-0.935,4.739-0.146,6.093
			c0.281,0.479,0.733,0.63,1.273,0.419c1.314-0.505,0.689-2.803,0.273-4.325c-0.116-0.43-0.219-0.803-0.246-1.024
			c-0.284-2.381,0.149-4.571,1.257-6.336c0.03-0.049,0.035-0.103,0.024-0.154c0.316-0.481,0.595-0.962,0.833-1.435
			C27.98,86.786,27.939,86.664,27.839,86.613z M11.434,97.911c-3.465,0.208-6.206-1.168-8.144-4.09
			c-0.765-1.154-2.076-4.292-0.768-5.209c0.232-0.162,0.354-0.114,0.392-0.097c0.46,0.184,0.722,1.546,0.895,2.449
			c0.1,0.508,0.184,0.949,0.292,1.208c0.954,2.308,2.727,3.976,5.13,4.828c1.441,0.511,3.019,0.687,4.603,0.53
			C13.029,97.733,12.223,97.863,11.434,97.911z"/>
		<path class="st1" d="M79.376,37.877c1.031-0.703,1.985-1.599,2.852-2.625c-0.325,0.807-0.624,1.707-0.791,2.535
			c-0.136,0.677-0.184,1.304-0.085,1.792c0.089,0.44,0.293,0.748,0.605,0.914c0.342,0.182,0.638,0.198,0.88,0.048
			c0.536-0.333,0.577-1.371,0.547-2.343l-0.003-0.111c-0.008-0.341-0.026-0.682-0.042-1.011c-0.068-1.334-0.132-2.596,0.397-3.868
			c0.309-0.478,0.601-0.973,0.877-1.48c0.403-0.491,0.744-1.021,1.008-1.58c0.043-0.09,0.013-0.198-0.069-0.255
			c-0.009-0.006-0.018-0.008-0.027-0.012c0.135-0.303,0.264-0.608,0.388-0.914c-0.598,3.079-0.438,4.93,0.485,5.638
			c0.468,0.359,0.848,0.454,1.13,0.283c0.522-0.318,0.391-1.396,0.311-1.844c-0.133-0.742-0.348-1.462-0.556-2.159
			c-0.327-1.095-0.636-2.129-0.666-3.266c-0.002-0.088-0.061-0.159-0.142-0.186c0.299-0.901,0.546-1.805,0.737-2.693
			c0.093-0.214,0.184-0.436,0.272-0.662c0.2,0.969,0.501,2.039,0.833,3.019c0.357,1.053,1.628,4.547,3,5.304
			c0.486,0.268,0.951,0.165,1.308-0.292c0.868-1.109-0.848-2.76-1.984-3.853c-0.323-0.31-0.601-0.578-0.737-0.755
			c-1.466-1.896-2.217-4-2.172-6.083c0.001-0.055-0.021-0.105-0.057-0.143c0.024-0.577,0.018-1.133-0.02-1.661
			c-0.008-0.112-0.106-0.197-0.218-0.188c-0.112,0.008-0.197,0.106-0.188,0.218c0.1,1.367-0.021,2.924-0.335,4.547
			c-0.937,1.601-2.492,2.699-3.415,3.248c-0.127,0.075-0.427,0.182-0.774,0.305c-0.978,0.347-2.317,0.822-2.576,1.536
			c-0.013,0.037-0.024,0.074-0.031,0.111c-0.038,0.188-0.002,0.381,0.107,0.565c0.219,0.371,0.536,0.584,0.943,0.632
			c1.238,0.146,2.977-1.343,3.543-1.929c0.61-0.632,1.161-1.374,1.66-2.238c-0.383,1.309-0.881,2.626-1.483,3.891
			c-1.587,1.462-3.802,2.466-6.041,2.716c-0.234,0.026-0.799-0.039-1.396-0.107c-2.037-0.234-3.497-0.341-3.648,0.41
			c-0.003,0.014-0.005,0.028-0.007,0.042c-0.047,0.352,0.072,0.668,0.342,0.913c1.142,1.035,4.894,0.653,5.472,0.517
			c1.438-0.336,2.774-1.02,3.867-1.935c0,0-0.001,0.001-0.001,0.001c-0.018,0.012-0.036,0.025-0.05,0.043
			c-0.108,0.133-0.248,0.356-0.406,0.644c-0.072,0.104-0.145,0.208-0.219,0.311c-0.067-0.01-0.138,0.013-0.185,0.069
			c-2.898,3.366-8.252,5.25-12.464,2.112c-0.192-0.143-0.491-0.478-0.808-0.833c-0.789-0.883-1.683-1.884-2.391-1.774
			c-0.259,0.04-0.459,0.215-0.596,0.521c-0.049,0.109-0.084,0.219-0.106,0.33c-0.354,1.761,2.476,3.73,3.634,4.284
			C73.137,40.134,76.42,39.893,79.376,37.877z M82.931,37.097c0.017,0.327,0.034,0.664,0.042,1l0.003,0.114
			c0.013,0.428,0.054,1.73-0.355,1.984c-0.109,0.068-0.269,0.047-0.473-0.062c-0.202-0.108-0.332-0.315-0.397-0.635
			c-0.234-1.157,0.511-3.376,1.198-4.888C82.845,35.43,82.887,36.25,82.931,37.097z M86.889,31.002
			c0.205,0.686,0.417,1.395,0.546,2.114c0.08,0.445,0.089,0.848,0.035,1.115c-0.031,0.156-0.084,0.265-0.157,0.31
			c-0.118,0.072-0.362-0.022-0.67-0.258c-0.561-0.43-1.032-1.729-0.301-5.395C86.474,29.615,86.684,30.316,86.889,31.002z
			 M89.579,27.752c0.155,0.2,0.443,0.477,0.777,0.799c0.865,0.832,2.25,2.164,2.077,3.023c-0.021,0.102-0.063,0.198-0.132,0.285
			c-0.235,0.301-0.479,0.358-0.79,0.186c-0.827-0.456-1.904-2.402-2.811-5.078c-0.142-0.42-0.272-0.836-0.389-1.24
			C88.651,26.421,89.074,27.099,89.579,27.752z M81.213,30.184c-0.278-0.033-0.487-0.175-0.64-0.434
			c-0.069-0.117-0.083-0.221-0.043-0.33c0.194-0.533,1.531-1.008,2.329-1.291c0.383-0.136,0.685-0.243,0.846-0.339
			c0.686-0.408,1.709-1.108,2.596-2.089c-0.556,1.061-1.181,1.946-1.885,2.676C83.797,29.017,82.201,30.301,81.213,30.184z
			 M79.515,34.408c-0.704,0.165-4.16,0.434-5.106-0.423c-0.174-0.158-0.241-0.335-0.211-0.558c0.001-0.003,0.001-0.007,0.002-0.01
			c0.09-0.448,2.19-0.207,3.203-0.091c0.674,0.077,1.207,0.138,1.488,0.107c1.995-0.223,3.975-1.024,5.539-2.209
			c-0.042,0.08-0.085,0.16-0.128,0.239C83.137,32.886,81.42,33.962,79.515,34.408z M70.058,38.208
			c-1.25-0.599-3.985-2.621-3.331-4.079c0.116-0.258,0.245-0.278,0.287-0.285c0.489-0.076,1.413,0.959,2.024,1.643
			c0.345,0.387,0.644,0.721,0.869,0.889c2.003,1.492,4.383,2.016,6.882,1.514c1.499-0.301,2.944-0.959,4.224-1.907
			c-0.588,0.588-1.212,1.113-1.866,1.559C76.277,39.497,73.219,39.721,70.058,38.208z"/>
	</g>
	<g>
		<path class="st1" d="M127.211,56.109c0.36-2.66,0.105-5.976-0.819-7.712c-0.435-0.813-1.06-1.308-1.676-1.319
			c-0.365-0.008-0.681,0.168-0.86,0.478c-0.316,0.543-0.181,1.384,0.368,2.308c0.062,0.105,0.135,0.222,0.213,0.349
			c0.965,1.568,2.973,4.828,1.311,9.074c-0.014,0.035-0.014,0.073-0.005,0.111c-0.23,0.592-0.441,1.195-0.632,1.806
			c-0.033,0.106,0.027,0.222,0.135,0.254c0.019,0.005,0.04,0.011,0.059,0.011c0.086,0,0.168-0.057,0.195-0.143
			c0.208-0.668,0.443-1.325,0.695-1.973c0.286-0.416,0.524-0.992,0.705-1.668c0.119-0.26,0.241-0.516,0.365-0.773
			c0.219-0.235,0.465-0.473,0.735-0.708v-1.562C127.727,55.122,127.462,55.611,127.211,56.109z M126.797,56.049
			c0.011-2.765-1.287-4.871-2.014-6.049c-0.076-0.124-0.146-0.241-0.208-0.343c-0.465-0.781-0.603-1.489-0.368-1.895
			c0.103-0.178,0.276-0.276,0.489-0.276h0.013c0.357,0.005,0.892,0.3,1.322,1.103C126.959,50.33,127.143,53.53,126.797,56.049z"/>
	</g>
	<path class="st1" d="M118.55,8.886c-0.279-0.508-2.838-5.055-6.679-7.906c-0.433-0.322-0.879-0.649-1.335-0.979h-1.041
		c6.104,5.06,7.463,10.877,8.22,14.113c0.427,1.819,0.684,2.916,1.497,2.933c0.465,0.008,0.833-0.187,1.062-0.568
		C121.107,15.106,120.007,11.543,118.55,8.886z M119.926,16.268c-0.154,0.257-0.386,0.378-0.705,0.37
		c-0.497-0.008-0.754-1.103-1.108-2.619c-0.703-3.003-1.919-8.198-6.868-12.999c0.13,0.097,0.257,0.192,0.386,0.286
		c3.771,2.8,6.287,7.277,6.563,7.777c1.06,1.927,1.749,3.941,1.922,5.409C120.207,15.271,120.15,15.895,119.926,16.268z
		 M111.289,6.345c-0.508-2.022-1.503-4.319-2.906-6.344h-0.497c1.457,2.035,2.49,4.384,3.009,6.444
		c0.059,0.235,0.097,0.449,0.119,0.638c0.076,0.649-0.038,1.035-0.189,1.179c-0.076,0.073-0.159,0.092-0.265,0.059
		c-0.354-0.103-0.835-0.733-1.114-1.903c-0.511-2.152-1.416-4.409-2.533-6.417h-0.465c1.146,2.025,2.079,4.322,2.6,6.512
		c0.286,1.206,0.808,2.027,1.395,2.2c0.249,0.073,0.484,0.016,0.662-0.157C111.484,8.194,111.552,7.389,111.289,6.345z
		 M103.942,0.001c0,0.008,0.003,0.014,0.003,0.022c0.041,0.346-0.022,0.611-0.124,0.776c-0.105,0.165-0.262,0.246-0.438,0.224
		c-0.281-0.03-0.668-0.319-0.97-1.022h-0.441c0.324,0.849,0.819,1.368,1.365,1.427c0.335,0.038,0.638-0.114,0.827-0.411
		c0.146-0.232,0.232-0.578,0.186-1.016H103.942z M104.351,0.001h-0.408c0,0.008,0.003,0.014,0.003,0.022
		c0.041,0.346-0.022,0.611-0.124,0.776c-0.105,0.165-0.262,0.246-0.438,0.224c-0.281-0.03-0.668-0.319-0.97-1.022h-0.441
		c0.324,0.849,0.819,1.368,1.365,1.427c0.335,0.038,0.638-0.114,0.827-0.411C104.31,0.785,104.396,0.439,104.351,0.001z"/>
	<path class="st1" d="M44.112,0.001c-0.176,0.773-0.405,1.503-0.7,2.09c-0.205,0.411-0.535,0.643-0.881,0.624
		c-0.219-0.011-0.397-0.132-0.465-0.313c-0.108-0.295,0.068-0.692,0.484-1.092c0.414-0.397,0.757-0.843,1.038-1.308h-0.478
		c-0.238,0.36-0.516,0.703-0.841,1.014c-0.541,0.519-0.754,1.076-0.587,1.527c0.111,0.295,0.362,0.5,0.681,0.562
		c0.046,0.008,0.095,0.016,0.146,0.019c0.511,0.027,0.987-0.289,1.268-0.851c0.319-0.635,0.568-1.43,0.757-2.271H44.112z M40.809,0
		c-2.389,1.952-5.068,2.738-6.646,2.611c-0.891-0.067-1.339-0.402-1.318-0.694c0.025-0.374,0.772-0.86,2.347-0.768
		c2.023,0.12,3.912-0.271,5.571-1.149h-0.959c-1.402,0.588-2.949,0.839-4.588,0.744c-1.85-0.106-2.735,0.518-2.78,1.149
		c-0.025,0.395,0.292,0.881,1.233,1.068c0.137,0.025,0.292,0.046,0.458,0.06c1.737,0.134,4.736-0.765,7.305-3.02H40.809z M40.809,0
		c-2.389,1.952-5.068,2.738-6.646,2.611c-0.891-0.067-1.339-0.402-1.318-0.694c0.025-0.374,0.772-0.86,2.347-0.768
		c2.023,0.12,3.912-0.271,5.571-1.149h-0.959c-1.402,0.588-2.949,0.839-4.588,0.744c-1.85-0.106-2.735,0.518-2.78,1.149
		c-0.025,0.395,0.292,0.881,1.233,1.068c0.137,0.025,0.292,0.046,0.458,0.06c1.737,0.134,4.736-0.765,7.305-3.02H40.809z"/>
</g>
</svg>
